<?xml version="1.0" encoding="UTF-8"?>
<svg id="Layer_2" data-name="Layer 2" xmlns="http://www.w3.org/2000/svg" viewBox="0 0 697.73 216">
  <g id="Layer_1-2" data-name="Layer 1">
    <g>
      <path d="m425.84,108h16.88c0-26.09-21.16-47.25-47.25-47.25s-47.25,21.16-47.25,47.25,21.16,47.25,47.25,47.25h97.17c-17.55,35.94-54.47,60.75-97.17,60.75-59.64,0-108-48.36-108-108S335.83,0,395.47,0s108,48.36,108,108c0,10.56-1.52,20.76-4.32,30.38h-103.68c-16.77,0-30.38-13.6-30.38-30.38s13.6-30.38,30.38-30.38,30.38,13.6,30.38,30.38Z"/>
      <path d="m310.74,199.77c-13.13,10.16-29.57,16.23-47.49,16.23-5.8,0-11.44-.64-16.88-1.89-17.08-3.78-32.06-13.16-42.83-26.16-6.48-7.76-11.44-16.84-14.51-26.73-.3-1.01-.61-2.06-.84-3.11-1.69-6.31-2.57-12.93-2.57-19.74V0h60.58c.1.07.17.1.17.17v32.84c-4.72-5.06-10.09-9.65-15.9-13.57,6.21,5.26,11.58,11.51,15.9,18.43,7.93,12.49,12.49,27.3,12.49,43.13s-4.56,30.65-12.49,43.13c-4.39,7.05-9.85,13.36-16.2,18.7,5.94-3.98,11.37-8.61,16.2-13.77v9.32c0,5.94,3.07,11.17,7.73,14.18,2.63,1.72,5.77,2.7,9.15,2.7,5.74,0,10.8-2.87,13.87-7.22.84,2.43,1.72,4.86,2.73,7.22,6.95,17.04,17.58,32.2,30.88,44.52Z"/>
      <polygon points="60.75 60.75 60.75 77.62 168.75 77.62 168.75 138.38 60.75 138.38 60.75 216 0 216 0 0 168.75 0 168.75 60.75 60.75 60.75"/>
      <polygon points="622.13 108 697.73 216 623.61 216 585.07 160.95 546.49 216 472.38 216 547.98 108 472.38 0 546.49 0 585.07 55.05 623.61 0 697.73 0 622.13 108"/>
    </g>
  </g>
</svg>